<?xml version="1.0" encoding="UTF-8"?>
<!DOCTYPE svg PUBLIC "-//W3C//DTD SVG 1.1//EN" "http://www.w3.org/Graphics/SVG/1.1/DTD/svg11.dtd">
<svg xmlns="http://www.w3.org/2000/svg" version="1.1" width="475px" height="380px" style="shape-rendering:geometricPrecision; text-rendering:geometricPrecision; image-rendering:optimizeQuality; fill-rule:evenodd; clip-rule:evenodd" xmlns:xlink="http://www.w3.org/1999/xlink">
<g><path style="opacity:1" fill="#000000" d="M -0.5,-0.5 C 157.833,-0.5 316.167,-0.5 474.5,-0.5C 474.5,126.167 474.5,252.833 474.5,379.5C 316.167,379.5 157.833,379.5 -0.5,379.5C -0.5,252.833 -0.5,126.167 -0.5,-0.5 Z"/></g>
<g><path style="opacity:1" fill="#7399b0" d="M 199.5,40.5 C 198.542,40.0472 197.708,39.3805 197,38.5C 196.517,39.448 196.351,40.448 196.5,41.5C 192.14,28.6936 193.14,28.3603 199.5,40.5 Z"/></g>
<g><path style="opacity:1" fill="#59778b" d="M 199.5,40.5 C 200.906,40.9731 201.573,41.9731 201.5,43.5C 200.094,43.0269 199.427,42.0269 199.5,40.5 Z"/></g>
<g><path style="opacity:1" fill="#8bbede" d="M 199.5,40.5 C 199.427,42.0269 200.094,43.0269 201.5,43.5C 206.917,50.6588 211.583,58.3254 215.5,66.5C 215.427,68.0269 216.094,69.0269 217.5,69.5C 218.82,71.4632 220.154,73.4632 221.5,75.5C 221.631,76.2389 221.464,76.9056 221,77.5C 214.468,71.3025 208.301,64.8025 202.5,58C 201.552,57.5172 200.552,57.3505 199.5,57.5C 198.5,52.1667 197.5,46.8333 196.5,41.5C 196.351,40.448 196.517,39.448 197,38.5C 197.708,39.3805 198.542,40.0472 199.5,40.5 Z"/></g>
<g><path style="opacity:1" fill="#759cb4" d="M 259.5,70.5 C 259.665,67.4816 259.498,64.4816 259,61.5C 258.502,63.5444 257.335,64.8777 255.5,65.5C 257.045,60.7428 259.379,56.4094 262.5,52.5C 262.833,53 263.167,53.5 263.5,54C 262.083,59.614 260.749,65.114 259.5,70.5 Z"/></g>
<g><path style="opacity:1" fill="#2286c5" d="M 217.5,90.5 C 218.674,91.5137 219.34,92.847 219.5,94.5C 220.008,97.1761 220.175,99.8428 220,102.5C 219.329,101.748 218.496,101.414 217.5,101.5C 216.833,101.167 216.167,100.833 215.5,100.5C 214.92,98.2512 213.587,96.5846 211.5,95.5C 209.167,92.5 206.5,89.8333 203.5,87.5C 201.518,83.8537 198.851,80.8537 195.5,78.5C 192.322,75.1553 189.322,71.6553 186.5,68C 187.928,65.781 189.928,64.281 192.5,63.5C 193.873,63.6567 195.207,63.49 196.5,63C 198.002,60.4531 200.002,59.6197 202.5,60.5C 208.591,70.0143 213.591,80.0143 217.5,90.5 Z"/></g>
<g><path style="opacity:1" fill="#8ec1e1" d="M 259.5,70.5 C 259.675,72.6208 259.341,74.6208 258.5,76.5C 257.113,78.8766 256.279,81.5432 256,84.5C 255.826,79.3165 255.326,74.3165 254.5,69.5C 254.833,68.1667 255.167,66.8333 255.5,65.5C 257.335,64.8777 258.502,63.5444 259,61.5C 259.498,64.4816 259.665,67.4816 259.5,70.5 Z"/></g>
<g><path style="opacity:1" fill="#557487" d="M 215.5,66.5 C 216.906,66.9731 217.573,67.9731 217.5,69.5C 216.094,69.0269 215.427,68.0269 215.5,66.5 Z"/></g>
<g><path style="opacity:1" fill="#2286c5" d="M 246.5,94.5 C 245.5,98.4972 244.5,102.497 243.5,106.5C 242.883,106.611 242.383,106.944 242,107.5C 241.5,95.8381 241.333,84.1714 241.5,72.5C 242.434,71.4324 242.768,70.099 242.5,68.5C 246.215,68.423 249.881,68.7564 253.5,69.5C 252.544,78.2577 250.211,86.5911 246.5,94.5 Z"/></g>
<g><path style="opacity:1" fill="#1c5a82" d="M 199.5,57.5 C 200.552,57.3505 201.552,57.5172 202.5,58C 208.301,64.8025 214.468,71.3025 221,77.5C 221.464,76.9056 221.631,76.2389 221.5,75.5C 222.94,77.5354 224.273,79.7021 225.5,82C 223.119,83.9459 220.619,85.7792 218,87.5C 217.517,88.448 217.351,89.448 217.5,90.5C 213.591,80.0143 208.591,70.0143 202.5,60.5C 200.002,59.6197 198.002,60.4531 196.5,63C 195.207,63.49 193.873,63.6567 192.5,63.5C 194.885,61.4404 197.218,59.4404 199.5,57.5 Z"/></g>
<g><path style="opacity:1" fill="#082c44" d="M 195.5,78.5 C 198.851,80.8537 201.518,83.8537 203.5,87.5C 200.119,85.1203 197.453,82.1203 195.5,78.5 Z"/></g>
<g><path style="opacity:1" fill="#5c8eaf" d="M 254.5,69.5 C 255.326,74.3165 255.826,79.3165 256,84.5C 256.279,81.5432 257.113,78.8766 258.5,76.5C 257.962,80.5236 257.295,84.5236 256.5,88.5C 255.883,88.6107 255.383,88.944 255,89.5C 254.5,82.8417 254.334,76.175 254.5,69.5 Z"/></g>
<g><path style="opacity:1" fill="#1b5981" d="M 255.5,65.5 C 255.167,66.8333 254.833,68.1667 254.5,69.5C 254.334,76.175 254.5,82.8417 255,89.5C 255.383,88.944 255.883,88.6107 256.5,88.5C 255.85,90.4352 255.517,92.4352 255.5,94.5C 252.388,93.9221 249.388,93.9221 246.5,94.5C 250.211,86.5911 252.544,78.2577 253.5,69.5C 249.881,68.7564 246.215,68.423 242.5,68.5C 242.768,70.099 242.434,71.4324 241.5,72.5C 241.5,70.8333 241.5,69.1667 241.5,67.5C 243.167,67.5 244.833,67.5 246.5,67.5C 249.838,67.9347 252.838,67.2681 255.5,65.5 Z"/></g>
<g><path style="opacity:1" fill="#2682bd" d="M 294.5,88.5 C 291.055,89.7301 288.055,91.7301 285.5,94.5C 284.399,93.4017 283.066,93.235 281.5,94C 277.072,96.5406 272.738,99.0406 268.5,101.5C 265.55,102.308 262.883,103.642 260.5,105.5C 259.662,105.158 259.328,104.492 259.5,103.5C 263.5,99.8333 267.5,96.1667 271.5,92.5C 275.1,90.5698 278.1,87.9031 280.5,84.5C 280.843,82.7748 281.843,82.2748 283.5,83C 284.985,85.4773 286.819,87.644 289,89.5C 290.766,88.7665 292.599,88.4332 294.5,88.5 Z"/></g>
<g><path style="opacity:1" fill="#475e6b" d="M 300.5,88.5 C 298.741,88.0461 296.741,88.0461 294.5,88.5C 297.617,86.5522 300.951,85.8855 304.5,86.5C 303.423,87.7051 302.09,88.3718 300.5,88.5 Z"/></g>
<g><path style="opacity:1" fill="#165780" d="M 280.5,84.5 C 278.1,87.9031 275.1,90.5698 271.5,92.5C 273.9,89.0969 276.9,86.4302 280.5,84.5 Z"/></g>
<g><path style="opacity:1" fill="#86b7d6" d="M 300.5,88.5 C 293.203,93.1529 285.87,97.8195 278.5,102.5C 278.062,102.565 277.728,102.399 277.5,102C 280.062,99.267 282.729,96.767 285.5,94.5C 288.055,91.7301 291.055,89.7301 294.5,88.5C 296.741,88.0461 298.741,88.0461 300.5,88.5 Z"/></g>
<g><path style="opacity:1" fill="#4c6370" d="M 121.5,93.5 C 119.143,93.3367 116.81,93.5034 114.5,94C 115.056,94.3826 115.389,94.8826 115.5,95.5C 113.91,95.3718 112.577,94.7051 111.5,93.5C 114.98,92.1944 118.313,92.1944 121.5,93.5 Z"/></g>
<g><path style="opacity:1" fill="#092d44" d="M 246.5,67.5 C 244.833,67.5 243.167,67.5 241.5,67.5C 241.5,69.1667 241.5,70.8333 241.5,72.5C 241.333,84.1714 241.5,95.8381 242,107.5C 242.383,106.944 242.883,106.611 243.5,106.5C 243.229,108.312 242.562,109.978 241.5,111.5C 240.501,96.5148 240.167,81.5148 240.5,66.5C 242.735,66.2053 244.735,66.5386 246.5,67.5 Z"/></g>
<g><path style="opacity:1" fill="#062d44" d="M 211.5,95.5 C 213.587,96.5846 214.92,98.2512 215.5,100.5C 213.413,99.4154 212.08,97.7488 211.5,95.5 Z"/></g>
<g><path style="opacity:1" fill="#8cbddc" d="M 121.5,93.5 C 141.16,95.32 160.827,96.9866 180.5,98.5C 180.611,99.1174 180.944,99.6174 181.5,100C 178.964,100.186 176.631,100.686 174.5,101.5C 168.288,101.523 162.288,102.19 156.5,103.5C 156.167,103.5 155.833,103.5 155.5,103.5C 152.813,103.336 150.146,103.503 147.5,104C 145.881,104.236 144.881,105.069 144.5,106.5C 144.167,106.5 143.833,106.5 143.5,106.5C 142.167,106.167 140.833,105.833 139.5,105.5C 139.027,104.094 138.027,103.427 136.5,103.5C 134.898,101.926 132.898,101.259 130.5,101.5C 125.606,99.2194 120.606,97.2194 115.5,95.5C 115.389,94.8826 115.056,94.3826 114.5,94C 116.81,93.5034 119.143,93.3367 121.5,93.5 Z"/></g>
<g><path style="opacity:1" fill="#185880" d="M 180.5,98.5 C 183.482,98.9629 186.482,99.2962 189.5,99.5C 189.5,104.167 189.5,108.833 189.5,113.5C 175.552,111.846 161.886,109.179 148.5,105.5C 150.969,104.832 153.302,104.165 155.5,103.5C 155.833,103.5 156.167,103.5 156.5,103.5C 162.726,103.612 168.726,102.946 174.5,101.5C 176.631,100.686 178.964,100.186 181.5,100C 180.944,99.6174 180.611,99.1174 180.5,98.5 Z"/></g>
<g><path style="opacity:1" fill="#5a7a8d" d="M 130.5,101.5 C 132.898,101.259 134.898,101.926 136.5,103.5C 134.102,103.741 132.102,103.074 130.5,101.5 Z"/></g>
<g><path style="opacity:1" fill="#1f6b9b" d="M 219.5,94.5 C 222.25,99.553 224.917,104.72 227.5,110C 227.15,111.257 226.483,111.591 225.5,111C 222.998,107.667 220.332,104.501 217.5,101.5C 218.496,101.414 219.329,101.748 220,102.5C 220.175,99.8428 220.008,97.1761 219.5,94.5 Z"/></g>
<g><path style="opacity:1" fill="#1e5b82" d="M 285.5,94.5 C 282.729,96.767 280.062,99.267 277.5,102C 277.728,102.399 278.062,102.565 278.5,102.5C 277.235,103.479 275.901,104.479 274.5,105.5C 273.272,102.929 271.272,101.595 268.5,101.5C 272.738,99.0406 277.072,96.5406 281.5,94C 283.066,93.235 284.399,93.4017 285.5,94.5 Z"/></g>
<g><path style="opacity:1" fill="#4986ab" d="M 174.5,101.5 C 168.726,102.946 162.726,103.612 156.5,103.5C 162.288,102.19 168.288,101.523 174.5,101.5 Z"/></g>
<g><path style="opacity:1" fill="#415b6c" d="M 136.5,103.5 C 138.027,103.427 139.027,104.094 139.5,105.5C 137.973,105.573 136.973,104.906 136.5,103.5 Z"/></g>
<g><path style="opacity:1" fill="#2389ca" d="M 155.5,103.5 C 153.302,104.165 150.969,104.832 148.5,105.5C 161.886,109.179 175.552,111.846 189.5,113.5C 194.23,115.237 199.23,116.237 204.5,116.5C 206.515,117.924 208.848,118.59 211.5,118.5C 212.808,119.232 214.142,120.066 215.5,121C 213.942,121.21 212.609,121.71 211.5,122.5C 210.167,122.5 208.833,122.5 207.5,122.5C 195.26,122.961 183.26,124.294 171.5,126.5C 164.833,126.833 158.167,127.167 151.5,127.5C 149.5,127.5 147.5,127.5 145.5,127.5C 145.825,120.313 145.491,113.313 144.5,106.5C 144.881,105.069 145.881,104.236 147.5,104C 150.146,103.503 152.813,103.336 155.5,103.5 Z"/></g>
<g><path style="opacity:1" fill="#0d202d" d="M 259.5,103.5 C 259.328,104.492 259.662,105.158 260.5,105.5C 259.599,107.727 257.933,108.727 255.5,108.5C 255.774,106.019 257.107,104.353 259.5,103.5 Z"/></g>
<g><path style="opacity:1" fill="#18547b" d="M 292.5,114.5 C 291.737,115.268 290.737,115.768 289.5,116C 286.183,116.498 282.85,116.665 279.5,116.5C 283.567,114.946 287.9,114.28 292.5,114.5 Z"/></g>
<g><path style="opacity:1" fill="#2386c4" d="M 292.5,114.5 C 292.833,114.5 293.167,114.5 293.5,114.5C 296.5,114.5 299.5,114.5 302.5,114.5C 302.5,117.167 302.5,119.833 302.5,122.5C 300.883,123.038 299.216,123.371 297.5,123.5C 297.389,122.883 297.056,122.383 296.5,122C 292.468,121.227 288.468,120.394 284.5,119.5C 282.833,119.5 281.167,119.5 279.5,119.5C 279.082,118.778 278.416,118.278 277.5,118C 278.056,117.617 278.389,117.117 278.5,116.5C 278.833,116.5 279.167,116.5 279.5,116.5C 282.85,116.665 286.183,116.498 289.5,116C 290.737,115.768 291.737,115.268 292.5,114.5 Z"/></g>
<g><path style="opacity:1" fill="#053654" d="M 293.5,114.5 C 296.625,113.521 299.958,113.187 303.5,113.5C 303.5,116.5 303.5,119.5 303.5,122.5C 303.167,122.5 302.833,122.5 302.5,122.5C 302.5,119.833 302.5,117.167 302.5,114.5C 299.5,114.5 296.5,114.5 293.5,114.5 Z"/></g>
<g><path style="opacity:1" fill="#0a334d" d="M 204.5,116.5 C 207.152,116.41 209.485,117.076 211.5,118.5C 208.848,118.59 206.515,117.924 204.5,116.5 Z"/></g>
<g><path style="opacity:1" fill="#1d4b68" d="M 278.5,116.5 C 278.389,117.117 278.056,117.617 277.5,118C 278.416,118.278 279.082,118.778 279.5,119.5C 276.774,119.736 274.441,118.903 272.5,117C 274.473,116.505 276.473,116.338 278.5,116.5 Z"/></g>
<g><path style="opacity:1" fill="#18547a" d="M 211.5,118.5 C 226.028,120.352 226.028,121.686 211.5,122.5C 212.609,121.71 213.942,121.21 215.5,121C 214.142,120.066 212.808,119.232 211.5,118.5 Z"/></g>
<g><path style="opacity:1" fill="#175c88" d="M 284.5,120.5 C 284.5,120.167 284.5,119.833 284.5,119.5C 288.468,120.394 292.468,121.227 296.5,122C 297.056,122.383 297.389,122.883 297.5,123.5C 293.878,123.322 290.544,123.989 287.5,125.5C 285.972,124.198 284.972,122.531 284.5,120.5 Z"/></g>
<g><path style="opacity:1" fill="#6698b7" d="M 302.5,122.5 C 302.833,122.5 303.167,122.5 303.5,122.5C 305.153,122.66 306.486,123.326 307.5,124.5C 303.531,123.636 299.531,123.802 295.5,125C 297.382,125.198 299.048,125.698 300.5,126.5C 297.833,126.5 295.167,126.5 292.5,126.5C 291.081,125.549 289.415,125.216 287.5,125.5C 290.544,123.989 293.878,123.322 297.5,123.5C 299.216,123.371 300.883,123.038 302.5,122.5 Z"/></g>
<g><path style="opacity:1" fill="#07314b" d="M 207.5,122.5 C 201.03,123.996 194.364,125.163 187.5,126C 182.177,126.499 176.844,126.666 171.5,126.5C 183.26,124.294 195.26,122.961 207.5,122.5 Z"/></g>
<g><path style="opacity:1" fill="#94c4e3" d="M 307.5,124.5 C 307.918,125.222 308.584,125.722 309.5,126C 307.866,126.494 306.199,126.66 304.5,126.5C 303.167,126.5 301.833,126.5 300.5,126.5C 299.048,125.698 297.382,125.198 295.5,125C 299.531,123.802 303.531,123.636 307.5,124.5 Z"/></g>
<g><path style="opacity:1" fill="#1f6b9b" d="M 143.5,106.5 C 143.833,106.5 144.167,106.5 144.5,106.5C 145.491,113.313 145.825,120.313 145.5,127.5C 147.5,127.5 149.5,127.5 151.5,127.5C 149.052,128.473 146.385,128.806 143.5,128.5C 143.5,121.167 143.5,113.833 143.5,106.5 Z"/></g>
<g><path style="opacity:1" fill="#193345" d="M 284.5,120.5 C 284.972,122.531 285.972,124.198 287.5,125.5C 289.415,125.216 291.081,125.549 292.5,126.5C 289.833,126.5 287.167,126.5 284.5,126.5C 284.5,124.5 284.5,122.5 284.5,120.5 Z"/></g>
<g><path style="opacity:1" fill="#5f8095" d="M 307.5,124.5 C 310.016,124.755 312.35,125.589 314.5,127C 310.973,127.808 307.64,127.641 304.5,126.5C 306.199,126.66 307.866,126.494 309.5,126C 308.584,125.722 307.918,125.222 307.5,124.5 Z"/></g>
<g><path style="opacity:1" fill="#0c2a41" d="M 171.5,126.5 C 163.858,127.852 156.025,128.852 148,129.5C 146.293,129.492 144.793,129.158 143.5,128.5C 146.385,128.806 149.052,128.473 151.5,127.5C 158.167,127.167 164.833,126.833 171.5,126.5 Z"/></g>
<g><path style="opacity:1" fill="#38505e" d="M 234.5,147.5 C 229.637,147.181 224.97,147.514 220.5,148.5C 219.957,148.44 219.624,148.107 219.5,147.5C 224.652,146.186 229.652,146.186 234.5,147.5 Z"/></g>
<g><path style="opacity:1" fill="#82b6d7" d="M 220.5,148.5 C 224.97,147.514 229.637,147.181 234.5,147.5C 241.887,149.417 244.387,154.084 242,161.5C 240.471,162.729 239.304,164.229 238.5,166C 239.949,167.102 241.282,168.269 242.5,169.5C 242.5,170.833 242.5,172.167 242.5,173.5C 240.5,173.5 238.5,173.5 236.5,173.5C 236.573,171.973 235.906,170.973 234.5,170.5C 234.158,169.662 233.492,169.328 232.5,169.5C 230.393,168.532 228.059,168.198 225.5,168.5C 225.5,172.167 225.5,175.833 225.5,179.5C 228.059,179.802 230.393,179.468 232.5,178.5C 235.108,178.4 237.442,179.067 239.5,180.5C 239.443,181.609 239.11,182.609 238.5,183.5C 232.161,185.657 225.828,185.991 219.5,184.5C 218.862,175.105 219.529,166.105 221.5,157.5C 224.295,162.582 228.295,163.749 233.5,161C 234.982,158.408 234.648,156.075 232.5,154C 230.167,153.667 227.833,153.333 225.5,153C 223.963,151.293 222.296,149.793 220.5,148.5 Z"/></g>
<g><path style="opacity:1" fill="#354a57" d="M 221.5,157.5 C 219.529,166.105 218.862,175.105 219.5,184.5C 218.506,175.348 218.173,166.015 218.5,156.5C 219.791,156.263 220.791,156.596 221.5,157.5 Z"/></g>
<g><path style="opacity:1" fill="#162630" d="M 232.5,169.5 C 233.492,169.328 234.158,169.662 234.5,170.5C 232.167,170.5 229.833,170.5 227.5,170.5C 227.5,173.167 227.5,175.833 227.5,178.5C 226.523,175.713 226.19,172.713 226.5,169.5C 228.5,169.5 230.5,169.5 232.5,169.5 Z"/></g>
<g><path style="opacity:1" fill="#496676" d="M 242.5,169.5 C 243.451,170.919 243.784,172.585 243.5,174.5C 240.941,174.802 238.607,174.468 236.5,173.5C 238.5,173.5 240.5,173.5 242.5,173.5C 242.5,172.167 242.5,170.833 242.5,169.5 Z"/></g>
<g><path style="opacity:1" fill="#5b7e94" d="M 232.5,169.5 C 230.5,169.5 228.5,169.5 226.5,169.5C 226.19,172.713 226.523,175.713 227.5,178.5C 229.167,178.5 230.833,178.5 232.5,178.5C 230.393,179.468 228.059,179.802 225.5,179.5C 225.5,175.833 225.5,172.167 225.5,168.5C 228.059,168.198 230.393,168.532 232.5,169.5 Z"/></g>
<g><path style="opacity:1" fill="#527387" d="M 232.5,178.5 C 235.402,176.885 237.735,177.551 239.5,180.5C 237.442,179.067 235.108,178.4 232.5,178.5 Z"/></g>
<g><path style="opacity:1" fill="#3b505d" d="M 239.5,180.5 C 240.885,181.947 240.552,182.947 238.5,183.5C 239.11,182.609 239.443,181.609 239.5,180.5 Z"/></g>
<g><path style="opacity:1" fill="#195377" d="M 397.5,211.5 C 396.539,209.735 396.205,207.735 396.5,205.5C 400.226,205.823 403.893,205.489 407.5,204.5C 402.88,203.507 398.214,203.173 393.5,203.5C 393.5,210.167 393.5,216.833 393.5,223.5C 392.509,216.687 392.175,209.687 392.5,202.5C 397.833,202.5 403.167,202.5 408.5,202.5C 408.5,203.833 408.5,205.167 408.5,206.5C 404.833,206.5 401.167,206.5 397.5,206.5C 397.5,208.167 397.5,209.833 397.5,211.5 Z"/></g>
<g><path style="opacity:1" fill="#0a344e" d="M 207.5,203.5 C 209.584,206.053 210.917,209.053 211.5,212.5C 209.416,209.947 208.083,206.947 207.5,203.5 Z"/></g>
<g><path style="opacity:1" fill="#2179b0" d="M 245.5,215.5 C 245.56,216.043 245.893,216.376 246.5,216.5C 247.493,211.88 247.827,207.214 247.5,202.5C 248.833,202.5 250.167,202.5 251.5,202.5C 251.5,209.5 251.5,216.5 251.5,223.5C 249.396,223.799 247.396,223.466 245.5,222.5C 243.738,219.299 241.738,216.299 239.5,213.5C 239.672,212.508 239.338,211.842 238.5,211.5C 238.585,210.005 237.919,209.005 236.5,208.5C 235.506,213.456 235.173,218.456 235.5,223.5C 234.5,223.5 233.5,223.5 232.5,223.5C 232.5,216.5 232.5,209.5 232.5,202.5C 234.199,202.34 235.866,202.506 237.5,203C 240.359,207.03 243.026,211.196 245.5,215.5 Z"/></g>
<g><path style="opacity:1" fill="#12405c" d="M 247.5,202.5 C 247.827,207.214 247.493,211.88 246.5,216.5C 245.893,216.376 245.56,216.043 245.5,215.5C 246.167,211.167 246.833,206.833 247.5,202.5 Z"/></g>
<g><path style="opacity:1" fill="#2284c2" d="M 330.5,206.5 C 329.539,208.265 329.205,210.265 329.5,212.5C 332.698,211.964 335.365,212.631 337.5,214.5C 334.833,214.5 332.167,214.5 329.5,214.5C 329.5,216.5 329.5,218.5 329.5,220.5C 333.5,220.5 337.5,220.5 341.5,220.5C 341.5,221.5 341.5,222.5 341.5,223.5C 336.5,223.5 331.5,223.5 326.5,223.5C 326.5,216.833 326.5,210.167 326.5,203.5C 331.214,203.173 335.88,203.507 340.5,204.5C 337.023,205.167 333.689,205.834 330.5,206.5 Z"/></g>
<g><path style="opacity:1" fill="#1e5f88" d="M 371.5,203.5 C 367.5,203.5 363.5,203.5 359.5,203.5C 359.5,210.167 359.5,216.833 359.5,223.5C 358.509,216.687 358.175,209.687 358.5,202.5C 363.032,202.182 367.366,202.515 371.5,203.5 Z"/></g>
<g><path style="opacity:1" fill="#040c14" d="M 173.5,202.5 C 174.833,202.5 176.167,202.5 177.5,202.5C 177.261,204.467 177.594,206.301 178.5,208C 166.552,209.5 166.552,210.666 178.5,211.5C 175.5,211.5 172.5,211.5 169.5,211.5C 169.5,212.833 169.5,214.167 169.5,215.5C 171.167,215.5 172.833,215.5 174.5,215.5C 174.67,216.822 174.337,217.989 173.5,219C 170.854,219.497 168.187,219.664 165.5,219.5C 163.327,215.76 162.994,211.76 164.5,207.5C 167.833,206.167 171.167,206.167 174.5,207.5C 176.111,206.68 176.778,205.346 176.5,203.5C 175.209,203.737 174.209,203.404 173.5,202.5 Z"/></g>
<g><path style="opacity:1" fill="#17577f" d="M 307.5,223.5 C 307.83,216.8 307.497,210.134 306.5,203.5C 305.832,206.306 305.166,208.972 304.5,211.5C 304.5,208.5 304.5,205.5 304.5,202.5C 306.167,202.5 307.833,202.5 309.5,202.5C 310.128,209.913 309.461,216.913 307.5,223.5 Z"/></g>
<g><path style="opacity:1" fill="#2282bf" d="M 397.5,211.5 C 399.833,211.5 402.167,211.5 404.5,211.5C 404.5,212.5 404.5,213.5 404.5,214.5C 401.833,214.5 399.167,214.5 396.5,214.5C 396.5,216.5 396.5,218.5 396.5,220.5C 400.167,220.5 403.833,220.5 407.5,220.5C 407.5,221.5 407.5,222.5 407.5,223.5C 402.833,223.5 398.167,223.5 393.5,223.5C 393.5,216.833 393.5,210.167 393.5,203.5C 398.214,203.173 402.88,203.507 407.5,204.5C 403.893,205.489 400.226,205.823 396.5,205.5C 396.205,207.735 396.539,209.735 397.5,211.5 Z"/></g>
<g><path style="opacity:1" fill="#093653" d="M 64.5,206.5 C 59.58,205.415 57.9134,207.082 59.5,211.5C 58.3509,211.209 57.6842,210.376 57.5,209C 57.6667,208.167 57.8333,207.333 58,206.5C 60.2735,205.189 62.4402,205.189 64.5,206.5 Z"/></g>
<g><path style="opacity:1" fill="#114768" d="M 372.5,203.5 C 373.458,203.953 374.292,204.619 375,205.5C 375.801,208.367 375.634,211.034 374.5,213.5C 374.845,209.885 374.178,206.552 372.5,203.5 Z"/></g>
<g><path style="opacity:1" fill="#154f74" d="M 126.5,203.5 C 122.341,208.434 121.341,214.101 123.5,220.5C 122.883,220.389 122.383,220.056 122,219.5C 121.333,215.167 121.333,210.833 122,206.5C 123.129,204.859 124.629,203.859 126.5,203.5 Z"/></g>
<g><path style="opacity:1" fill="#103f5d" d="M 139.5,204.5 C 140.458,204.953 141.292,205.619 142,206.5C 142.812,210.689 142.645,214.689 141.5,218.5C 141.966,213.57 141.299,208.903 139.5,204.5 Z"/></g>
<g><path style="opacity:1" fill="#174f74" d="M 330.5,206.5 C 333.689,205.834 337.023,205.167 340.5,204.5C 335.88,203.507 331.214,203.173 326.5,203.5C 326.5,210.167 326.5,216.833 326.5,223.5C 325.509,216.687 325.175,209.687 325.5,202.5C 330.833,202.5 336.167,202.5 341.5,202.5C 341.5,203.833 341.5,205.167 341.5,206.5C 337.833,206.5 334.167,206.5 330.5,206.5 Z"/></g>
<g><path style="opacity:1" fill="#1e638e" d="M 330.5,206.5 C 330.5,208.167 330.5,209.833 330.5,211.5C 333.167,211.5 335.833,211.5 338.5,211.5C 338.737,212.791 338.404,213.791 337.5,214.5C 335.365,212.631 332.698,211.964 329.5,212.5C 329.205,210.265 329.539,208.265 330.5,206.5 Z"/></g>
<g><path style="opacity:1" fill="#207bb4" d="M 207.5,203.5 C 208.083,206.947 209.416,209.947 211.5,212.5C 212.826,215.773 214.16,219.106 215.5,222.5C 213.604,223.466 211.604,223.799 209.5,223.5C 209.5,222.167 209.5,220.833 209.5,219.5C 206.482,219.335 203.482,219.502 200.5,220C 199.663,221.011 199.33,222.178 199.5,223.5C 198.167,223.5 196.833,223.5 195.5,223.5C 196.803,217.372 198.637,211.372 201,205.5C 202.705,202.739 204.871,202.073 207.5,203.5 Z"/></g>
<g><path style="opacity:1" fill="#030c14" d="M 205.5,210.5 C 206.338,210.842 206.672,211.508 206.5,212.5C 206.5,213.5 206.5,214.5 206.5,215.5C 205.325,215.719 204.325,215.386 203.5,214.5C 203.994,212.974 204.661,211.641 205.5,210.5 Z"/></g>
<g><path style="opacity:1" fill="#1a5c84" d="M 238.5,211.5 C 237.883,211.389 237.383,211.056 237,210.5C 236.501,214.821 236.334,219.154 236.5,223.5C 236.167,223.5 235.833,223.5 235.5,223.5C 235.173,218.456 235.506,213.456 236.5,208.5C 237.919,209.005 238.585,210.005 238.5,211.5 Z"/></g>
<g><path style="opacity:1" fill="#0a3753" d="M 205.5,210.5 C 204.661,211.641 203.994,212.974 203.5,214.5C 204.325,215.386 205.325,215.719 206.5,215.5C 206.5,214.5 206.5,213.5 206.5,212.5C 207.434,213.568 207.768,214.901 207.5,216.5C 205.833,216.5 204.167,216.5 202.5,216.5C 202.162,213.843 202.829,211.51 204.5,209.5C 205.107,209.624 205.44,209.957 205.5,210.5 Z"/></g>
<g><path style="opacity:1" fill="#0b3e5d" d="M 338.5,211.5 C 339.434,212.568 339.768,213.901 339.5,215.5C 336.5,215.5 333.5,215.5 330.5,215.5C 330.5,216.833 330.5,218.167 330.5,219.5C 334.371,219.185 338.038,219.518 341.5,220.5C 337.5,220.5 333.5,220.5 329.5,220.5C 329.5,218.5 329.5,216.5 329.5,214.5C 332.167,214.5 334.833,214.5 337.5,214.5C 338.404,213.791 338.737,212.791 338.5,211.5 Z"/></g>
<g><path style="opacity:1" fill="#2280bb" d="M 371.5,203.5 C 371.833,203.5 372.167,203.5 372.5,203.5C 374.178,206.552 374.845,209.885 374.5,213.5C 370.673,216.068 370.673,218.735 374.5,221.5C 374.209,222.649 373.376,223.316 372,223.5C 369.308,222.469 367.808,220.469 367.5,217.5C 366.081,216.549 364.415,216.216 362.5,216.5C 362.5,218.833 362.5,221.167 362.5,223.5C 361.5,223.5 360.5,223.5 359.5,223.5C 359.5,216.833 359.5,210.167 359.5,203.5C 363.5,203.5 367.5,203.5 371.5,203.5 Z"/></g>
<g><path style="opacity:1" fill="#092234" d="M 369.5,206.5 C 370.947,207.134 371.613,208.301 371.5,210C 371.316,211.376 370.649,212.209 369.5,212.5C 367.393,213.468 365.059,213.802 362.5,213.5C 362.5,211.167 362.5,208.833 362.5,206.5C 364.833,206.5 367.167,206.5 369.5,206.5 Z"/></g>
<g><path style="opacity:1" fill="#185d89" d="M 369.5,206.5 C 367.167,206.5 364.833,206.5 362.5,206.5C 362.5,208.833 362.5,211.167 362.5,213.5C 361.527,211.052 361.194,208.385 361.5,205.5C 364.385,205.194 367.052,205.527 369.5,206.5 Z"/></g>
<g><path style="opacity:1" fill="#000103" d="M 369.5,212.5 C 367.5,212.5 365.5,212.5 363.5,212.5C 363.5,210.833 363.5,209.167 363.5,207.5C 365.5,207.5 367.5,207.5 369.5,207.5C 369.5,209.167 369.5,210.833 369.5,212.5 Z"/></g>
<g><path style="opacity:1" fill="#1d71a5" d="M 173.5,202.5 C 174.209,203.404 175.209,203.737 176.5,203.5C 176.778,205.346 176.111,206.68 174.5,207.5C 171.167,206.167 167.833,206.167 164.5,207.5C 162.994,211.76 163.327,215.76 165.5,219.5C 162.011,218.311 161.678,219.145 164.5,222C 168.152,222.499 171.818,222.665 175.5,222.5C 162.206,225.731 157.039,220.398 160,206.5C 163.735,202.904 168.235,201.571 173.5,202.5 Z"/></g>
<g><path style="opacity:1" fill="#1f76ac" d="M 304.5,211.5 C 305.166,208.972 305.832,206.306 306.5,203.5C 307.497,210.134 307.83,216.8 307.5,223.5C 306.5,223.5 305.5,223.5 304.5,223.5C 304.5,220.833 304.5,218.167 304.5,215.5C 301.038,214.518 297.371,214.185 293.5,214.5C 293.5,217.5 293.5,220.5 293.5,223.5C 292.167,223.5 290.833,223.5 289.5,223.5C 289.5,216.5 289.5,209.5 289.5,202.5C 291.167,202.5 292.833,202.5 294.5,202.5C 294.5,205.5 294.5,208.5 294.5,211.5C 297.833,211.5 301.167,211.5 304.5,211.5 Z"/></g>
<g><path style="opacity:1" fill="#0b2e45" d="M 374.5,213.5 C 373.167,216.167 373.167,218.833 374.5,221.5C 370.673,218.735 370.673,216.068 374.5,213.5 Z"/></g>
<g><path style="opacity:1" fill="#1f77ae" d="M 139.5,204.5 C 141.299,208.903 141.966,213.57 141.5,218.5C 140.404,220.103 139.07,221.603 137.5,223C 133.5,223.667 129.5,223.667 125.5,223C 124.619,222.292 123.953,221.458 123.5,220.5C 121.341,214.101 122.341,208.434 126.5,203.5C 130.94,202.095 135.273,202.429 139.5,204.5 Z"/></g>
<g><path style="opacity:1" fill="#040910" d="M 127.5,206.5 C 130.579,206.26 133.579,206.593 136.5,207.5C 140.379,219.126 136.879,222.46 126,217.5C 125.039,213.508 125.539,209.841 127.5,206.5 Z"/></g>
<g><path style="opacity:1" fill="#011e2e" d="M 238.5,211.5 C 239.338,211.842 239.672,212.508 239.5,213.5C 238.883,213.389 238.383,213.056 238,212.5C 237.823,216.356 237.323,220.023 236.5,223.5C 236.334,219.154 236.501,214.821 237,210.5C 237.383,211.056 237.883,211.389 238.5,211.5 Z"/></g>
<g><path style="opacity:1" fill="#12496b" d="M 304.5,215.5 C 301.167,215.5 297.833,215.5 294.5,215.5C 294.806,218.385 294.473,221.052 293.5,223.5C 293.5,220.5 293.5,217.5 293.5,214.5C 297.371,214.185 301.038,214.518 304.5,215.5 Z"/></g>
<g><path style="opacity:1" fill="#04263d" d="M 367.5,217.5 C 366.167,217.5 364.833,217.5 363.5,217.5C 363.795,219.735 363.461,221.735 362.5,223.5C 362.5,221.167 362.5,218.833 362.5,216.5C 364.415,216.216 366.081,216.549 367.5,217.5 Z"/></g>
<g><path style="opacity:1" fill="#185b85" d="M 178.5,211.5 C 179.833,213.833 179.833,216.167 178.5,218.5C 178.5,216.5 178.5,214.5 178.5,212.5C 175.753,212.187 173.086,212.52 170.5,213.5C 172.045,214.452 173.712,214.785 175.5,214.5C 175.739,216.467 175.406,218.301 174.5,220C 171.304,220.805 168.304,220.638 165.5,219.5C 168.187,219.664 170.854,219.497 173.5,219C 174.337,217.989 174.67,216.822 174.5,215.5C 172.833,215.5 171.167,215.5 169.5,215.5C 169.5,214.167 169.5,212.833 169.5,211.5C 172.5,211.5 175.5,211.5 178.5,211.5 Z"/></g>
<g><path style="opacity:1" fill="#0a3f60" d="M 404.5,211.5 C 405.434,212.568 405.768,213.901 405.5,215.5C 402.833,215.5 400.167,215.5 397.5,215.5C 397.5,216.833 397.5,218.167 397.5,219.5C 401.167,219.5 404.833,219.5 408.5,219.5C 408.768,221.099 408.434,222.432 407.5,223.5C 407.5,222.5 407.5,221.5 407.5,220.5C 403.833,220.5 400.167,220.5 396.5,220.5C 396.5,218.5 396.5,216.5 396.5,214.5C 399.167,214.5 401.833,214.5 404.5,214.5C 404.5,213.5 404.5,212.5 404.5,211.5 Z"/></g>
<g><path style="opacity:1" fill="#1b618d" d="M 102.5,223.5 C 99.392,221.829 95.892,220.829 92,220.5C 91.8299,214.804 91.3299,209.138 90.5,203.5C 89.5033,210.134 89.17,216.8 89.5,223.5C 88.5088,216.687 88.1755,209.687 88.5,202.5C 89.8333,202.5 91.1667,202.5 92.5,202.5C 92.5,208.167 92.5,213.833 92.5,219.5C 96.1817,219.335 99.8484,219.501 103.5,220C 104.985,221.756 104.652,222.923 102.5,223.5 Z"/></g>
<g><path style="opacity:1" fill="#2283c2" d="M 102.5,223.5 C 98.1667,223.5 93.8333,223.5 89.5,223.5C 89.17,216.8 89.5033,210.134 90.5,203.5C 91.3299,209.138 91.8299,214.804 92,220.5C 95.892,220.829 99.392,221.829 102.5,223.5 Z"/></g>
<g><path style="opacity:1" fill="#2383bf" d="M 178.5,218.5 C 178.229,220.43 177.229,221.764 175.5,222.5C 171.818,222.665 168.152,222.499 164.5,222C 161.678,219.145 162.011,218.311 165.5,219.5C 168.304,220.638 171.304,220.805 174.5,220C 175.406,218.301 175.739,216.467 175.5,214.5C 173.712,214.785 172.045,214.452 170.5,213.5C 173.086,212.52 175.753,212.187 178.5,212.5C 178.5,214.5 178.5,216.5 178.5,218.5 Z"/></g>
<g><path style="opacity:1" fill="#2076ad" d="M 64.5,206.5 C 62.4402,205.189 60.2735,205.189 58,206.5C 57.8333,207.333 57.6667,208.167 57.5,209C 57.6842,210.376 58.3509,211.209 59.5,211.5C 63.8394,210.846 67.6727,211.846 71,214.5C 72.6147,219.043 71.1147,221.876 66.5,223C 62.7887,223.825 59.122,223.659 55.5,222.5C 54.0499,221.15 53.3832,219.484 53.5,217.5C 57.941,219.107 62.6077,219.774 67.5,219.5C 67.5,218.167 67.5,216.833 67.5,215.5C 63.8183,215.665 60.1516,215.499 56.5,215C 52.5753,210.962 52.5753,206.962 56.5,203C 59.8333,202.333 63.1667,202.333 66.5,203C 69.2146,203.875 70.5479,205.708 70.5,208.5C 68.2821,208.386 66.2821,207.72 64.5,206.5 Z"/></g>
<g><path style="opacity:1" fill="#228acb" d="M 303.5,258.5 C 292.455,256.322 281.455,253.988 270.5,251.5C 266.709,251.341 263.042,250.675 259.5,249.5C 255.645,246.965 251.312,245.965 246.5,246.5C 246.167,246.5 245.833,246.5 245.5,246.5C 245.082,245.778 244.416,245.278 243.5,245C 244.737,244.768 245.737,244.268 246.5,243.5C 247.833,243.5 249.167,243.5 250.5,243.5C 255.181,243.331 259.848,242.998 264.5,242.5C 272.841,243.085 280.841,242.085 288.5,239.5C 290.833,239.5 293.167,239.5 295.5,239.5C 302.491,238.744 309.491,238.577 316.5,239C 315.687,245.419 315.187,251.919 315,258.5C 311.24,259.357 307.406,259.357 303.5,258.5 Z"/></g>
<g><path style="opacity:1" fill="#85b5d3" d="M 168.5,239.5 C 168.918,240.222 169.584,240.722 170.5,241C 165.882,241.994 161.215,242.494 156.5,242.5C 153.279,241.889 150.279,240.722 147.5,239C 154.499,238.772 161.499,238.939 168.5,239.5 Z"/></g>
<g><path style="opacity:1" fill="#1f6c9d" d="M 288.5,239.5 C 280.841,242.085 272.841,243.085 264.5,242.5C 264.5,242.167 264.5,241.833 264.5,241.5C 272.488,240.701 280.488,240.035 288.5,239.5 Z"/></g>
<g><path style="opacity:1" fill="#124667" d="M 264.5,241.5 C 264.5,241.833 264.5,242.167 264.5,242.5C 259.848,242.998 255.181,243.331 250.5,243.5C 254.919,242.028 259.586,241.362 264.5,241.5 Z"/></g>
<g><path style="opacity:1" fill="#1c5477" d="M 246.5,243.5 C 245.737,244.268 244.737,244.768 243.5,245C 244.416,245.278 245.082,245.778 245.5,246.5C 235.104,244.855 235.438,243.855 246.5,243.5 Z"/></g>
<g><path style="opacity:1" fill="#216b98" d="M 246.5,246.5 C 251.312,245.965 255.645,246.965 259.5,249.5C 255.015,248.66 250.681,247.66 246.5,246.5 Z"/></g>
<g><path style="opacity:1" fill="#2171a3" d="M 310.5,237.5 C 312.833,237.5 315.167,237.5 317.5,237.5C 317.5,244.833 317.5,252.167 317.5,259.5C 314.752,261.044 311.752,261.71 308.5,261.5C 306.928,260.313 305.261,259.313 303.5,258.5C 307.406,259.357 311.24,259.357 315,258.5C 315.187,251.919 315.687,245.419 316.5,239C 309.491,238.577 302.491,238.744 295.5,239.5C 300.25,237.969 305.25,237.302 310.5,237.5 Z"/></g>
<g><path style="opacity:1" fill="#246a98" d="M 168.5,239.5 C 174.927,237.762 177.594,240.095 176.5,246.5C 177.833,246.5 179.167,246.5 180.5,246.5C 182.369,247.165 184.369,247.831 186.5,248.5C 181.381,249.588 176.381,250.588 171.5,251.5C 167.119,251.372 162.785,251.705 158.5,252.5C 158.94,248.821 158.273,245.488 156.5,242.5C 161.215,242.494 165.882,241.994 170.5,241C 169.584,240.722 168.918,240.222 168.5,239.5 Z"/></g>
<g><path style="opacity:1" fill="#228acb" d="M 159.5,243.5 C 166.326,244.299 172.993,245.799 179.5,248C 172.952,249.804 166.286,250.637 159.5,250.5C 159.5,248.167 159.5,245.833 159.5,243.5 Z"/></g>
<g><path style="opacity:1" fill="#061929" d="M 180.5,246.5 C 183.998,245.955 186.998,246.788 189.5,249C 183.66,250.81 177.66,251.644 171.5,251.5C 176.381,250.588 181.381,249.588 186.5,248.5C 184.369,247.831 182.369,247.165 180.5,246.5 Z"/></g>
<g><path style="opacity:1" fill="#101e29" d="M 310.5,237.5 C 312.948,236.527 315.615,236.194 318.5,236.5C 318.334,243.841 318.5,251.174 319,258.5C 320.729,258.974 321.895,259.974 322.5,261.5C 320.716,261.107 319.05,260.441 317.5,259.5C 317.5,252.167 317.5,244.833 317.5,237.5C 315.167,237.5 312.833,237.5 310.5,237.5 Z"/></g>
<g><path style="opacity:1" fill="#18577f" d="M 270.5,251.5 C 281.455,253.988 292.455,256.322 303.5,258.5C 305.261,259.313 306.928,260.313 308.5,261.5C 304.546,262.381 300.546,263.048 296.5,263.5C 289.239,263.614 282.239,264.614 275.5,266.5C 274.167,266.5 272.833,266.5 271.5,266.5C 271.779,261.405 271.445,256.405 270.5,251.5 Z"/></g>
<g><path style="opacity:1" fill="#185175" d="M 237.5,257.5 C 236.506,258.999 236.506,260.666 237.5,262.5C 235.877,260.122 234.543,257.455 233.5,254.5C 233.833,254.167 234.167,253.833 234.5,253.5C 235.524,254.852 236.524,256.185 237.5,257.5 Z"/></g>
<g><path style="opacity:1" fill="#175175" d="M 199.5,263.5 C 198.791,262.596 197.791,262.263 196.5,262.5C 198.688,260.245 201.354,259.411 204.5,260C 203.211,261.802 201.544,262.969 199.5,263.5 Z"/></g>
<g><path style="opacity:1" fill="#1a567d" d="M 194.5,263.5 C 189.471,266.585 183.971,269.251 178,271.5C 177.235,271.43 176.735,271.097 176.5,270.5C 178.963,268.539 181.297,266.372 183.5,264C 182.906,263.536 182.239,263.369 181.5,263.5C 185.076,259.189 188.242,259.523 191,264.5C 192.138,264.011 193.305,263.678 194.5,263.5 Z"/></g>
<g><path style="opacity:1" fill="#8dc1e1" d="M 317.5,259.5 C 319.05,260.441 320.716,261.107 322.5,261.5C 329.582,264.305 336.582,267.305 343.5,270.5C 339.366,271.485 335.032,271.818 330.5,271.5C 321.451,271.329 312.451,270.662 303.5,269.5C 302.909,268.849 302.243,268.182 301.5,267.5C 295.528,266.67 289.528,266.17 283.5,266C 288.015,265.386 292.348,264.552 296.5,263.5C 300.546,263.048 304.546,262.381 308.5,261.5C 311.752,261.71 314.752,261.044 317.5,259.5 Z"/></g>
<g><path style="opacity:1" fill="#73a2c0" d="M 296.5,263.5 C 292.348,264.552 288.015,265.386 283.5,266C 289.528,266.17 295.528,266.67 301.5,267.5C 302.243,268.182 302.909,268.849 303.5,269.5C 294.162,268.5 284.829,267.5 275.5,266.5C 282.239,264.614 289.239,263.614 296.5,263.5 Z"/></g>
<g><path style="opacity:1" fill="#13405c" d="M 219.5,298.5 C 219.667,285.163 219.5,271.829 219,258.5C 218.768,259.737 218.268,260.737 217.5,261.5C 217.247,259.173 217.914,257.173 219.5,255.5C 220.826,269.994 220.826,284.328 219.5,298.5 Z"/></g>
<g><path style="opacity:1" fill="#2484c1" d="M 196.5,262.5 C 197.791,262.263 198.791,262.596 199.5,263.5C 197.14,266.527 194.473,269.194 191.5,271.5C 187.5,274.833 183.833,278.5 180.5,282.5C 178.067,282.727 176.401,281.727 175.5,279.5C 175.573,277.973 174.906,276.973 173.5,276.5C 172.5,276.5 171.5,276.5 170.5,276.5C 172.167,274.167 174.167,272.167 176.5,270.5C 176.735,271.097 177.235,271.43 178,271.5C 183.971,269.251 189.471,266.585 194.5,263.5C 195.492,263.672 196.158,263.338 196.5,262.5 Z"/></g>
<g><path style="opacity:1" fill="#2286c5" d="M 237.5,257.5 C 242.54,261.539 246.873,266.206 250.5,271.5C 251.419,274.089 253.086,276.089 255.5,277.5C 259.167,280.5 262.5,283.833 265.5,287.5C 266.757,290.427 268.757,292.761 271.5,294.5C 273.914,295.406 274.747,297.072 274,299.5C 270.515,301.15 267.349,303.15 264.5,305.5C 262.973,305.427 261.973,306.094 261.5,307.5C 259.067,307.727 257.401,306.727 256.5,304.5C 253.686,294.508 249.353,284.842 243.5,275.5C 241.739,270.982 239.739,266.649 237.5,262.5C 236.506,260.666 236.506,258.999 237.5,257.5 Z"/></g>
<g><path style="opacity:1" fill="#6e8fa4" d="M 343.5,270.5 C 351.595,272.282 351.928,273.282 344.5,273.5C 339.624,273.31 334.957,272.643 330.5,271.5C 335.032,271.818 339.366,271.485 343.5,270.5 Z"/></g>
<g><path style="opacity:1" fill="#185c87" d="M 250.5,271.5 C 252.914,272.911 254.581,274.911 255.5,277.5C 253.086,276.089 251.419,274.089 250.5,271.5 Z"/></g>
<g><path style="opacity:1" fill="#82b1cf" d="M 181.5,263.5 C 182.239,263.369 182.906,263.536 183.5,264C 181.297,266.372 178.963,268.539 176.5,270.5C 174.167,272.167 172.167,274.167 170.5,276.5C 169.5,276.5 168.5,276.5 167.5,276.5C 166.448,276.649 165.448,276.483 164.5,276C 165.381,275.292 166.047,274.458 166.5,273.5C 171.291,269.932 176.291,266.598 181.5,263.5 Z"/></g>
<g><path style="opacity:1" fill="#1e4b69" d="M 214.5,271.5 C 214.573,273.027 213.906,274.027 212.5,274.5C 211.167,274.5 209.833,274.5 208.5,274.5C 208.633,277.925 207.967,278.258 206.5,275.5C 205.833,276.5 205.167,277.5 204.5,278.5C 204.674,276.139 205.007,273.806 205.5,271.5C 208.612,272.078 211.612,272.078 214.5,271.5 Z"/></g>
<g><path style="opacity:1" fill="#2388c8" d="M 216.5,265.5 C 217.828,270.456 218.495,275.789 218.5,281.5C 218.495,287.211 217.828,292.544 216.5,297.5C 213.287,297.19 210.287,297.523 207.5,298.5C 207.167,298.5 206.833,298.5 206.5,298.5C 206.5,296.833 206.5,295.167 206.5,293.5C 207.931,293.119 208.764,292.119 209,290.5C 210.743,285.283 211.91,279.95 212.5,274.5C 213.906,274.027 214.573,273.027 214.5,271.5C 214.875,269.302 215.542,267.302 216.5,265.5 Z"/></g>
<g><path style="opacity:1" fill="#1a5d88" d="M 212.5,274.5 C 211.91,279.95 210.743,285.283 209,290.5C 208.764,292.119 207.931,293.119 206.5,293.5C 206.5,287.5 206.5,281.5 206.5,275.5C 207.967,278.258 208.633,277.925 208.5,274.5C 209.833,274.5 211.167,274.5 212.5,274.5 Z"/></g>
<g><path style="opacity:1" fill="#6a8da2" d="M 166.5,273.5 C 166.047,274.458 165.381,275.292 164.5,276C 165.448,276.483 166.448,276.649 167.5,276.5C 154.57,280.84 154.236,279.84 166.5,273.5 Z"/></g>
<g><path style="opacity:1" fill="#0f3c57" d="M 173.5,276.5 C 174.906,276.973 175.573,277.973 175.5,279.5C 174.094,279.027 173.427,278.027 173.5,276.5 Z"/></g>
<g><path style="opacity:1" fill="#072031" d="M 191.5,271.5 C 188.833,276.167 185.167,279.833 180.5,282.5C 183.833,278.5 187.5,274.833 191.5,271.5 Z"/></g>
<g><path style="opacity:1" fill="#195982" d="M 243.5,275.5 C 249.353,284.842 253.686,294.508 256.5,304.5C 250.427,298.756 244.427,293.089 238.5,287.5C 234.166,283.764 234.833,280.931 240.5,279C 241.448,278.517 242.448,278.351 243.5,278.5C 243.5,277.5 243.5,276.5 243.5,275.5 Z"/></g>
<g><path style="opacity:1" fill="#2478ad" d="M 219.5,298.5 C 218.209,298.737 217.209,298.404 216.5,297.5C 217.828,292.544 218.495,287.211 218.5,281.5C 218.495,275.789 217.828,270.456 216.5,265.5C 216.232,263.901 216.566,262.568 217.5,261.5C 218.268,260.737 218.768,259.737 219,258.5C 219.5,271.829 219.667,285.163 219.5,298.5 Z"/></g>
<g><path style="opacity:1" fill="#114a6c" d="M 265.5,287.5 C 268.243,289.239 270.243,291.573 271.5,294.5C 268.757,292.761 266.757,290.427 265.5,287.5 Z"/></g>
<g><path style="opacity:1" fill="#86b8d7" d="M 206.5,275.5 C 206.5,281.5 206.5,287.5 206.5,293.5C 206.5,295.167 206.5,296.833 206.5,298.5C 205.227,300.713 204.227,303.046 203.5,305.5C 202.094,305.973 201.427,306.973 201.5,308.5C 200.833,309.833 200.167,311.167 199.5,312.5C 198.566,311.432 198.232,310.099 198.5,308.5C 200.926,298.617 202.926,288.617 204.5,278.5C 205.167,277.5 205.833,276.5 206.5,275.5 Z"/></g>
<g><path style="opacity:1" fill="#134463" d="M 207.5,298.5 C 210.287,297.523 213.287,297.19 216.5,297.5C 217.209,298.404 218.209,298.737 219.5,298.5C 215.707,298.885 211.707,298.885 207.5,298.5 Z"/></g>
<g><path style="opacity:1" fill="#19354b" d="M 264.5,305.5 C 262.919,307.142 262.253,309.142 262.5,311.5C 261.566,310.432 261.232,309.099 261.5,307.5C 261.973,306.094 262.973,305.427 264.5,305.5 Z"/></g>
<g><path style="opacity:1" fill="#3d5666" d="M 203.5,305.5 C 203.573,307.027 202.906,308.027 201.5,308.5C 201.427,306.973 202.094,305.973 203.5,305.5 Z"/></g>
<g><path style="opacity:1" fill="#8abdde" d="M 238.5,287.5 C 244.427,293.089 250.427,298.756 256.5,304.5C 257.401,306.727 259.067,307.727 261.5,307.5C 261.232,309.099 261.566,310.432 262.5,311.5C 263.634,314.37 264.3,317.37 264.5,320.5C 264.702,322.95 264.369,325.283 263.5,327.5C 262.833,326.833 262.167,326.167 261.5,325.5C 261.573,323.973 260.906,322.973 259.5,322.5C 252.763,310.695 245.763,299.029 238.5,287.5 Z"/></g>
<g><path style="opacity:1" fill="#324551" d="M 198.5,308.5 C 198.232,310.099 198.566,311.432 199.5,312.5C 199.631,313.376 199.298,314.043 198.5,314.5C 197.207,312.364 197.207,310.364 198.5,308.5 Z"/></g>
<g><path style="opacity:1" fill="#3b4f5d" d="M 259.5,322.5 C 260.906,322.973 261.573,323.973 261.5,325.5C 260.094,325.027 259.427,324.027 259.5,322.5 Z"/></g>
<g><path style="opacity:1" fill="#6c90a6" d="M 264.5,320.5 C 266.603,324.589 267.27,328.922 266.5,333.5C 265.451,331.472 264.451,329.472 263.5,327.5C 264.369,325.283 264.702,322.95 264.5,320.5 Z"/></g>
</svg>
